<svg width="254" height="194" viewBox="0 0 254 194" fill="none" xmlns="http://www.w3.org/2000/svg">
<path fill-rule="evenodd" clip-rule="evenodd" d="M138.607 12.0292C138.607 5.54286 133.259 0 127 0C120.741 0 115.506 5.54286 115.506 12.0292V35.9696C115.506 42.4559 120.741 47.8808 127 47.8808C133.259 47.8808 138.607 42.4559 138.607 35.9696V12.0292ZM184.127 55.9003C179.689 60.4997 179.689 68.1653 184.241 72.7647C188.565 77.3641 196.076 77.3641 200.514 72.6468L216.901 55.6644C221.34 51.183 221.34 43.2815 216.901 38.6821C212.463 34.2006 205.066 34.2006 200.628 38.8L184.127 55.9003ZM53.4857 72.6468C57.81 77.3641 65.3208 77.3641 69.7589 72.7647C74.1971 68.2833 74.1971 60.3818 69.8727 55.9003L53.4857 38.8C49.1613 34.3185 41.6505 34.2006 37.2124 38.6821C32.7742 43.2815 32.7742 51.183 37.0986 55.5465L53.4857 72.6468ZM127 69.6985C94.2258 69.6985 67.0278 97.7666 67.0278 131.849C67.0278 165.932 94.2258 194 127 194C131.858 194 136.591 193.383 141.129 192.222V180.65H111.236C87.9536 177.752 79.1112 157.708 79.4891 148.049H118.795C137.542 148.049 145.505 169.783 147.143 180.65C148.781 169.783 156.743 148.049 175.49 148.049H184.764C186.129 142.876 186.858 137.444 186.858 131.849C186.858 97.7666 159.774 69.6985 127 69.6985ZM163.859 180.65C160.55 183.359 156.964 185.715 153.156 187.663V180.65H163.859ZM242.506 143.878C248.765 143.878 254 138.336 254 131.849C254 125.363 248.765 119.938 242.506 119.938H219.405C213.146 119.938 207.911 125.363 207.911 131.849C207.911 138.336 213.146 143.878 219.405 143.878H242.506ZM11.6075 119.938C5.23477 119.938 0 125.363 0 131.849C0 138.336 5.23477 143.878 11.6075 143.878H34.595C40.8539 143.878 46.2025 138.336 46.2025 131.849C46.2025 125.363 40.8539 119.938 34.595 119.938H11.6075ZM145.335 165.06C139.083 157.258 131.518 147.818 128.922 132.442C125.928 114.709 131.465 109.165 139.058 101.562C142.508 98.1071 146.383 94.2276 150.074 88.5866C159.404 94.3877 172.705 134.895 163.752 146.622C158.74 153.188 156.005 156.797 153.598 159.972C151.706 162.469 150.016 164.698 147.582 167.887C146.861 166.964 146.108 166.025 145.335 165.06Z" fill="#FFD409"/>
</svg>
