<svg width="503" height="394" viewBox="0 0 503 394" fill="none" xmlns="http://www.w3.org/2000/svg">
<path d="M495.886 248.613C495.886 373.982 538.929 393.5 405 393.5C275 393.5 -22.1013 377.613 10.8862 248.613C72.3862 8.1129 118.886 56.6133 280.886 8.61337C442.886 -39.3865 495.886 123.245 495.886 248.613Z" fill="#3A9775" fill-opacity="0.6"/>
<path d="M331.655 293.881C336.335 293.881 340.675 296.326 343.101 300.328L355 319.962H344.331H85.4986H74.434L88.617 299.612C91.1198 296.021 95.2204 293.881 99.5975 293.881H102.491H329.71H331.655Z" fill="#65AAB4"/>
<path d="M355 319.962V324.755C355 332.147 349.008 338.139 341.616 338.139H87.8183C80.4264 338.139 74.434 332.147 74.434 324.755V319.962H85.4986H344.331H355Z" fill="#65AAB4"/>
<path d="M355 319.962L343.101 300.328C340.675 296.326 336.335 293.881 331.655 293.881H329.71H102.491H99.5975C95.2204 293.881 91.1198 296.021 88.617 299.612L74.434 319.962M355 319.962V324.755C355 332.147 349.008 338.139 341.616 338.139H87.8183C80.4264 338.139 74.434 332.147 74.434 324.755V319.962M355 319.962H344.331H85.4986H74.434" stroke="black" stroke-width="0.743575"/>
<path d="M337.595 293.881C338.36 293.881 339.072 294.273 339.481 294.919L351.65 314.168C352.589 315.653 351.522 317.591 349.765 317.591H338.824H90.1995H80.0326C78.2033 317.591 77.1517 315.51 78.2364 314.037L92.4115 294.789C92.8319 294.218 93.4987 293.881 94.2077 293.881H106.521H324.78H337.595Z" fill="#F7FFD6" stroke="black" stroke-width="0.743575"/>
<rect width="41.8873" height="3.16131" rx="1.58065" transform="matrix(-1 0 0 1 314.693 329.446)" fill="#352424"/>
<rect width="15.8065" height="3.16131" rx="1.58065" transform="matrix(-1 0 0 1 267.274 329.446)" fill="#352424"/>
<path d="M343.204 307.56L338.172 299.384C337.754 298.706 338.242 297.833 339.038 297.833C339.381 297.833 339.702 298.006 339.89 298.294L345.144 306.329C345.643 307.094 345.095 308.107 344.182 308.107C343.783 308.107 343.413 307.9 343.204 307.56Z" fill="black" stroke="black" stroke-width="0.743575"/>
<path d="M272.8 199.435C261.306 231.869 249.536 233.125 233.69 252.782C212.346 279.259 234.553 293.184 233.679 293.711H215.897C216.161 289.759 208.229 277.52 202.854 273.726C196.137 268.984 181.747 286.549 157.024 283.605C107.235 277.677 113.292 265.688 105.257 252.782C92.2168 231.839 65.3456 243.693 23.0631 231.048C-19.2194 218.403 5.0079 147.767 29.3857 126.725C66.9262 94.3217 10.0227 107.362 23.0631 76.9344C70.3933 -33.5029 115.531 103.015 160.58 71.0068C201.677 43.082 308.371 99.0641 272.8 199.435Z" fill="#CBDB8A"/>
<path d="M118.367 213.823L109.792 200.674L104.792 183.81L119.224 176.378L175.534 146.937L196.114 169.461L118.367 213.823Z" fill="#FFECBC"/>
<path d="M175.82 55.1842L227.27 100.632L217.552 160.371L215.551 158.371L196.114 169.461L175.534 146.937L175.82 55.1842Z" fill="#997D39"/>
<path fill-rule="evenodd" clip-rule="evenodd" d="M98.9302 86.3402L175.82 55.1842L175.534 146.937L119.224 176.378L98.9302 86.3402ZM106.362 106.063L138.09 91.7711L145.235 148.366L118.367 161.229L106.362 106.063Z" fill="#FFC83C"/>
<path d="M117.224 218.396L124.37 243.264L90.9269 188.669L59.485 100.918L89.4977 145.222L106.934 202.103L117.224 218.396Z" fill="#997D39"/>
<path d="M227.27 100.632L230.128 99.2028L215.551 188.097L124.37 243.264L117.224 218.396L217.552 160.371L227.27 100.632Z" fill="#FFC83C"/>
<path d="M138.09 91.7711L106.362 106.063L118.367 161.229L145.235 148.366L138.09 91.7711Z" fill="#FEF7E7"/>
<path d="M92.9277 143.793L63.8822 100.632L98.9302 86.3402L119.224 176.378L104.792 183.81L92.9277 143.793Z" fill="#814916"/>
<path d="M96.9294 84.3394L98.9302 86.3402L63.8822 100.632L62.3434 98.3453L96.9294 84.3394Z" fill="#FFC83C"/>
<path d="M230.128 99.2028L227.27 100.632L175.82 55.1842L98.9302 86.3402L96.9294 84.3394L176.963 52.04L230.128 99.2028Z" fill="#FFC83C"/>
<path d="M92.9277 143.793L89.4977 145.222L59.485 100.918L58.6275 99.7745L62.3434 98.3453L63.8822 100.632L92.9277 143.793Z" fill="#FFC83C"/>
<path d="M89.4977 145.222L92.9277 143.793L104.792 183.81L109.792 200.674L106.934 202.103L89.4977 145.222Z" fill="#FFC83C"/>
<path d="M217.552 160.371L117.224 218.396L106.934 202.103L109.792 200.674L118.367 213.823L196.114 169.461L215.551 158.371L217.552 160.371Z" fill="#FFC83C"/>
<path d="M230.128 99.2028L227.27 100.632M230.128 99.2028L176.963 52.04L96.9294 84.3394M230.128 99.2028L215.551 188.097L124.37 243.264M227.27 100.632L175.82 55.1842M227.27 100.632L217.552 160.371M175.82 55.1842L98.9302 86.3402M175.82 55.1842L175.534 146.937M98.9302 86.3402L96.9294 84.3394M98.9302 86.3402L63.8822 100.632M98.9302 86.3402L119.224 176.378M96.9294 84.3394L62.3434 98.3453M124.37 243.264L117.224 218.396M124.37 243.264L90.9269 188.669L59.485 100.918M117.224 218.396L217.552 160.371M117.224 218.396L106.934 202.103M217.552 160.371L215.551 158.371L196.114 169.461M109.792 200.674L118.367 213.823L196.114 169.461M109.792 200.674L106.934 202.103M109.792 200.674L104.792 183.81M92.9277 143.793L89.4977 145.222M92.9277 143.793L63.8822 100.632M92.9277 143.793L104.792 183.81M89.4977 145.222L106.934 202.103M89.4977 145.222L59.485 100.918M59.485 100.918L58.6275 99.7745L62.3434 98.3453M62.3434 98.3453L63.8822 100.632M119.224 176.378L104.792 183.81M119.224 176.378L175.534 146.937M175.534 146.937L196.114 169.461M138.09 91.7711L106.362 106.063L118.367 161.229L145.235 148.366L138.09 91.7711Z" stroke="black" stroke-width="0.862866"/>
</svg>
