<svg width="427" height="426" viewBox="0 0 427 426" fill="none" xmlns="http://www.w3.org/2000/svg">
<path d="M419.631 227C358.762 424.5 343.762 431.5 193.131 423.5C11.7617 401.5 0 360.076 0 251C0 141.924 38.9238 0 148 0C257.076 0 468.631 19 419.631 227Z" fill="#3A9775" fill-opacity="0.6"/>
<path d="M293.033 147.317L185.992 111.636V179.429V263.873L293.033 310.257V147.317Z" fill="#FFC83C"/>
<path d="M114.631 310.257L185.992 263.873V179.429L114.631 218.678V310.257Z" fill="#FFC83C"/>
<path d="M185.992 111.636L293.033 147.317L315.631 138.991L222.862 104.5L185.992 111.636Z" fill="#FFC83C"/>
<path d="M114.631 218.678L185.992 179.429L172.909 178.24L114.631 209.163V218.678Z" fill="#40320F"/>
<path d="M293.033 147.317V310.257L315.631 297.175V138.991L293.033 147.317Z" fill="#40320F"/>
<path d="M114.631 310.257L185.992 263.873M114.631 310.257V218.678M114.631 310.257L185.992 380.429M185.992 263.873L293.033 310.257M185.992 263.873V179.429M185.992 111.636L293.033 147.317M185.992 111.636L222.862 104.5L315.631 138.991M185.992 111.636V179.429M293.033 147.317V310.257M293.033 147.317L315.631 138.991M293.033 310.257L315.631 297.175V138.991M114.631 218.678L185.992 179.429M114.631 218.678V209.163M185.992 179.429L172.909 178.24L114.631 209.163M114.631 111.636V209.163" stroke="black" stroke-width="0.8"/>
<path d="M177.667 187.457C181.235 192.215 188.133 201.492 187.182 200.54L197.885 212.434L200.264 211.243L202.047 210.055L203.832 208.866L191.939 183.889L177.667 187.457Z" fill="white"/>
<path d="M189.56 224.326C193.129 230.669 202.168 243.355 209.779 243.355C217.391 243.355 225.637 240.977 228.809 239.787C226.034 250.492 220.959 273.327 222.862 279.036C223.266 280.248 225.007 281.082 227.619 281.615C237.216 283.573 258.572 281.463 268.603 279.036C271.925 278.232 274.004 277.394 274.004 276.657C274.004 273.089 275.194 225.515 266.868 217.19C258.543 208.864 258.543 211.243 257.353 211.243C256.164 211.243 240.702 213.62 239.513 211.243C238.324 208.866 233.566 221.949 220.484 221.949C207.401 221.949 206.211 212.434 202.643 213.623C200.064 214.483 194.998 216.585 191.939 219.931C190.767 221.213 189.89 222.678 189.56 224.326Z" fill="#81947A"/>
<path d="M251.406 384.889C250.613 367.445 249.027 330.417 249.027 321.854C249.027 311.15 247.838 302.824 251.406 304.013C254.284 304.973 255.614 345.379 257.893 363.481C258.439 367.826 259.041 370.886 259.732 371.806C262.953 376.101 278.776 378.458 281.822 375.374C282.149 375.043 282.329 374.648 282.329 374.185C282.329 369.428 277.475 281.415 268.603 279.036C258.572 281.463 237.216 283.573 227.619 281.615C224.53 309.366 219.656 361.326 221.495 375.374C221.779 377.549 222.225 378.815 222.862 378.942C228.091 379.988 243.438 388.392 249.49 386.36C250.321 386.082 250.976 385.606 251.406 384.889Z" fill="#2C3E25"/>
<path d="M233.566 175.564C231.187 177.942 232.377 182.7 232.377 183.889C235.548 186.268 242.129 190.55 243.081 188.647C244.27 186.268 247.838 193.404 246.649 195.783C245.697 197.686 243.874 197.369 243.081 196.972C244.032 205.535 251.406 206.883 254.974 206.487C255.193 206.523 255.434 206.549 255.691 206.561C258.237 206.674 262.436 205.399 263.3 199.351C264.489 191.025 257.353 181.511 251.406 176.753C245.459 171.996 235.945 173.185 233.566 175.564Z" fill="#343434"/>
<path d="M191.939 219.931C194.998 216.585 200.064 214.483 202.643 213.623C201.692 212.672 201.849 210.848 202.047 210.055L200.264 211.243L197.885 212.434L187.182 200.54C185.993 199.351 183.614 200.54 182.424 201.73C181.235 202.919 183.506 209.037 187.182 211.243C193.128 214.812 191.146 218.224 191.939 219.931Z" fill="#FFB18F"/>
<path d="M241.891 212.178C246.574 212.726 256.414 211.243 257.353 211.243L255.691 206.561C255.434 206.549 255.193 206.523 254.974 206.487C251.406 206.883 244.032 205.535 243.081 196.972C243.874 197.369 245.697 197.686 246.649 195.783C247.838 193.404 244.27 186.268 243.081 188.647C242.129 190.55 235.548 186.268 232.377 183.889C232.377 185.079 227.619 186.268 227.619 187.457C227.619 188.409 229.205 190.232 229.998 191.025C229.998 193.404 228.809 200.54 228.809 204.108C228.809 206.963 237.53 206.883 241.891 206.487V206.743V212.178Z" fill="#FFB18F"/>
<path d="M222.862 378.942C222.225 378.815 221.779 377.549 221.495 375.374C218.779 373.392 213.347 370.379 213.347 374.185C213.347 378.942 212.158 386.079 215.726 389.647C218.58 392.501 231.187 393.215 237.134 393.215C240.306 394.008 246.887 395.356 247.838 394.404C248.79 393.453 249.336 388.645 249.49 386.36C243.438 388.392 228.091 379.988 222.862 378.942Z" fill="#494949"/>
<path d="M259.732 371.806C259.041 370.886 258.439 367.826 257.893 363.481C256.127 363.085 252.595 363.005 252.595 365.86C252.595 369.428 258.542 382.511 265.678 381.321C271.387 380.37 272.022 384.096 271.625 386.079H277.572H281.14L281.822 375.374C278.776 378.458 262.953 376.101 259.732 371.806Z" fill="#494949"/>
<path d="M257.353 211.243C258.543 211.243 258.543 208.864 266.868 217.19C275.194 225.515 274.004 273.089 274.004 276.657C274.004 277.394 271.925 278.232 268.603 279.036M257.353 211.243C256.164 211.243 240.702 213.62 239.513 211.243C238.324 208.866 233.566 221.949 220.484 221.949C207.401 221.949 206.211 212.434 202.643 213.623M257.353 211.243L255.691 206.561M257.353 211.243C256.414 211.243 246.574 212.726 241.891 212.178V206.743M202.643 213.623C200.064 214.483 194.998 216.585 191.939 219.931M202.643 213.623C201.692 212.672 201.849 210.848 202.047 210.055M191.939 219.931C190.767 221.213 189.89 222.678 189.56 224.326C193.129 230.669 202.168 243.355 209.779 243.355C217.391 243.355 225.637 240.977 228.809 239.787C226.034 250.492 220.959 273.327 222.862 279.036C223.266 280.248 225.007 281.082 227.619 281.615M191.939 219.931C191.146 218.224 193.128 214.812 187.182 211.243C183.506 209.037 181.235 202.919 182.424 201.73C183.614 200.54 185.993 199.351 187.182 200.54M187.182 200.54C188.133 201.492 181.235 192.215 177.667 187.457L191.939 183.889L203.832 208.866L202.047 210.055M187.182 200.54L197.885 212.434L200.264 211.243L202.047 210.055M241.891 206.487C237.53 206.883 228.809 206.963 228.809 204.108C228.809 200.54 229.998 193.404 229.998 191.025C229.205 190.232 227.619 188.409 227.619 187.457C227.619 186.268 232.377 185.079 232.377 183.889M241.891 206.487V206.743M241.891 206.487C241.687 206.692 241.566 206.875 241.891 206.743M232.377 183.889C232.377 182.7 231.187 177.942 233.566 175.564C235.945 173.185 245.459 171.996 251.406 176.753C257.353 181.511 264.489 191.025 263.3 199.351C262.436 205.399 258.237 206.674 255.691 206.561M232.377 183.889C235.548 186.268 242.129 190.55 243.081 188.647C244.27 186.268 247.838 193.404 246.649 195.783C245.697 197.686 243.874 197.369 243.081 196.972C244.032 205.535 251.406 206.883 254.974 206.487C255.193 206.523 255.434 206.549 255.691 206.561M244.27 205.298C242.89 206.218 242.196 206.619 241.891 206.743M227.619 281.615C237.216 283.573 258.572 281.463 268.603 279.036M227.619 281.615C224.53 309.366 219.656 361.326 221.495 375.374M268.603 279.036C277.475 281.415 282.329 369.428 282.329 374.185C282.329 374.648 282.149 375.043 281.822 375.374M257.893 363.481C255.614 345.379 254.284 304.973 251.406 304.013C247.838 302.824 249.027 311.15 249.027 321.854C249.027 330.417 250.613 367.445 251.406 384.889C250.976 385.606 250.321 386.082 249.49 386.36M257.893 363.481C258.439 367.826 259.041 370.886 259.732 371.806C262.953 376.101 278.776 378.458 281.822 375.374M257.893 363.481C256.127 363.085 252.595 363.005 252.595 365.86C252.595 369.428 258.542 382.511 265.678 381.321C271.387 380.37 272.022 384.096 271.625 386.079H277.572H281.14L281.822 375.374M221.495 375.374C221.779 377.549 222.225 378.815 222.862 378.942C228.091 379.988 243.438 388.392 249.49 386.36M221.495 375.374C218.779 373.392 213.347 370.379 213.347 374.185C213.347 378.942 212.158 386.079 215.726 389.647C218.58 392.501 231.187 393.215 237.134 393.215C240.306 394.008 246.887 395.356 247.838 394.404C248.79 393.453 249.336 388.645 249.49 386.36" stroke="black" stroke-width="0.4"/>
</svg>
