<svg width="15" height="21" viewBox="0 0 15 21" fill="none" xmlns="http://www.w3.org/2000/svg">
<path d="M14.2328 11.291L12.9686 18.8762C12.9123 19.2241 12.7328 19.5401 12.463 19.7667C12.1932 19.9934 11.851 20.1155 11.4986 20.111H3.72231C3.36996 20.1155 3.02771 19.9934 2.7579 19.7667C2.48808 19.5401 2.30866 19.2241 2.25231 18.8762L1.00281 11.291H14.2328Z" stroke="white" stroke-width="1.47" stroke-linecap="round" stroke-linejoin="round"/>
<path d="M3.20803 1.28027C2.51908 1.80976 1.96166 2.49115 1.5792 3.27137C1.19674 4.05159 0.999566 4.90957 1.00303 5.77847C0.955416 7.19144 1.47048 8.56556 2.43512 9.59911C3.39976 10.6327 4.73514 11.2411 6.14803 11.291C6.61624 11.2907 7.08185 11.2213 7.52983 11.0852L3.20803 1.28027Z" stroke="white" stroke-width="1.47" stroke-linecap="round" stroke-linejoin="round"/>
<path d="M12.0282 1.28027C12.7172 1.80976 13.2746 2.49115 13.6571 3.27137C14.0395 4.05159 14.2367 4.90957 14.2332 5.77847C14.2808 7.19144 13.7658 8.56556 12.8011 9.59911C11.8365 10.6327 10.5011 11.2411 9.08822 11.291C8.62001 11.2907 8.1544 11.2213 7.70642 11.0852L12.0282 1.28027Z" stroke="white" stroke-width="1.47" stroke-linecap="round" stroke-linejoin="round"/>
<path d="M4.67798 4.675L7.61798 1L10.558 4.675" stroke="white" stroke-width="1.47" stroke-linecap="round" stroke-linejoin="round"/>
</svg>
